<?xml version="1.0" standalone="no"?>
<!DOCTYPE svg PUBLIC "-//W3C//DTD SVG 20010904//EN"
 "http://www.w3.org/TR/2001/REC-SVG-20010904/DTD/svg10.dtd">
<svg version="1.0" xmlns="http://www.w3.org/2000/svg"
 width="1232.000000pt" height="376.000000pt" viewBox="0 0 1232.000000 376.000000"
 preserveAspectRatio="xMidYMid meet">

<g transform="translate(0.000000,376.000000) scale(0.100000,-0.100000)"
fill="#ffffff" stroke="none">
<path d="M2470 3539 c-40 -16 -189 -175 -289 -309 -88 -116 -417 -607 -644
-960 -54 -84 -100 -151 -102 -149 -1 2 17 243 41 534 24 292 42 546 38 566 -9
62 -58 99 -129 99 -22 0 -42 -8 -56 -22 -92 -96 -239 -417 -504 -1098 -210
-539 -244 -618 -266 -625 -28 -9 -24 -20 20 -54 43 -34 81 -51 116 -51 23 0
25 4 24 48 -1 51 4 78 56 285 44 171 113 396 166 533 52 137 257 602 320 724
52 101 105 174 120 165 26 -17 0 -371 -67 -924 -14 -119 -27 -245 -27 -281 -2
-95 31 -147 105 -165 24 -6 29 -3 38 20 28 73 277 506 473 820 327 524 583
840 649 799 28 -17 -13 -229 -98 -509 -105 -345 -446 -1359 -480 -1427 -27
-54 -143 -248 -158 -265 -1 -1 -47 11 -101 28 -267 80 -464 112 -705 112 -186
0 -303 -11 -415 -39 -206 -51 -357 -151 -413 -272 -21 -47 -24 -65 -20 -127 4
-60 10 -82 36 -122 116 -180 361 -275 676 -260 199 9 352 53 521 148 152 87
342 251 439 381 16 21 35 38 43 38 13 0 14 -10 7 -67 -5 -38 -9 -96 -9 -130 1
-87 33 -127 115 -148 l25 -6 0 140 c0 76 3 142 7 146 10 10 203 -74 639 -278
440 -206 519 -241 734 -323 325 -123 604 -208 826 -253 728 -147 1389 -116
2133 100 287 83 862 302 913 347 30 26 31 80 3 110 -31 33 -92 30 -119 -4 -12
-15 -21 -37 -21 -49 0 -12 -6 -27 -13 -33 -19 -16 -452 -183 -597 -230 -355
-117 -722 -195 -1085 -233 -149 -15 -572 -15 -720 0 -646 66 -1106 214 -2070
665 -143 67 -336 156 -430 196 -93 41 -171 75 -172 75 -5 2 47 207 88 349 22
78 64 206 94 286 62 169 115 336 115 363 0 10 47 163 105 340 169 518 215 695
215 815 -1 145 -83 223 -190 181z m-1160 -2215 c136 -20 430 -90 446 -107 2
-2 -27 -37 -64 -79 -197 -225 -429 -366 -678 -414 -88 -16 -291 -18 -383 -3
-144 23 -283 99 -346 187 -26 38 -30 53 -30 107 0 54 4 69 30 107 103 146 408
234 775 222 80 -3 192 -12 250 -20z"/>
<path d="M8280 3533 c-81 -28 -153 -83 -290 -221 -198 -201 -400 -475 -625
-852 -121 -202 -302 -559 -375 -737 -30 -73 -56 -131 -57 -129 -5 5 41 201 76
326 103 364 268 766 486 1186 106 203 158 270 228 293 20 7 37 18 37 25 0 28
-102 103 -145 108 -26 3 -34 -4 -67 -52 -52 -76 -181 -331 -273 -540 -255
-577 -462 -1221 -539 -1678 -34 -201 -34 -234 0 -261 26 -20 103 -30 105 -13
8 112 12 151 25 222 9 47 35 135 59 195 39 101 154 366 176 407 18 34 58 -2
151 -135 229 -326 367 -463 540 -535 163 -68 379 -68 422 0 8 13 7 21 -2 30
-9 9 -17 6 -38 -13 -22 -20 -35 -24 -86 -22 -78 2 -177 33 -258 80 -124 73
-351 326 -491 550 l-20 32 28 6 c340 67 672 305 956 684 147 196 253 402 299
583 53 211 -28 416 -183 462 -64 19 -82 19 -139 -1z m209 -98 c88 -101 28
-424 -130 -700 -215 -376 -685 -768 -1024 -855 -93 -24 -195 -20 -195 8 0 20
187 382 285 552 319 552 627 923 840 1015 53 23 133 33 167 22 15 -5 41 -24
57 -42z"/>
<path d="M9052 3040 c-37 -49 -112 -93 -322 -185 -169 -75 -200 -92 -200 -110
0 -30 28 -65 51 -65 11 0 62 29 114 65 148 104 266 175 289 175 19 0 21 -6 22
-63 1 -69 27 -140 65 -175 27 -26 87 -30 95 -7 9 23 -15 45 -47 45 -57 0 -81
65 -54 155 11 40 25 62 56 89 l41 35 -29 35 c-34 44 -53 45 -81 6z"/>
<path d="M3791 2454 c-7 -42 -32 -146 -57 -231 l-44 -155 -134 -151 c-264
-299 -444 -458 -483 -425 -29 24 -3 148 102 483 31 99 63 208 72 243 15 61 15
64 -4 90 -11 15 -32 31 -47 37 -25 9 -32 5 -69 -36 -23 -25 -87 -101 -143
-170 -211 -259 -371 -415 -404 -394 -17 11 -8 87 19 157 57 149 245 368 316
368 9 0 33 -11 53 -25 45 -31 66 -18 36 22 -34 46 -108 86 -167 91 -46 3 -57
0 -95 -27 -87 -64 -191 -242 -247 -424 -34 -108 -31 -164 11 -208 71 -74 139
-23 452 342 145 169 182 209 182 195 0 -3 -29 -93 -66 -199 -107 -315 -133
-441 -103 -500 17 -32 60 -77 91 -93 41 -22 81 -17 124 15 52 38 203 195 343
359 63 72 116 130 118 128 3 -2 -14 -62 -37 -132 -41 -126 -41 -128 -25 -170
18 -48 57 -94 79 -94 9 0 22 16 30 35 55 130 254 433 347 528 91 92 108 91
145 -4 30 -81 84 -143 132 -154 41 -9 100 18 175 79 l58 48 -17 -39 c-62 -138
-101 -309 -90 -390 11 -80 62 -154 122 -173 28 -10 40 -7 82 14 72 36 223 160
407 334 l160 151 29 -29 29 -29 -17 -74 c-24 -101 -24 -177 1 -219 28 -49 77
-78 131 -78 42 0 49 4 112 69 37 37 87 100 110 140 33 56 47 71 66 71 48 0
182 51 269 102 104 62 299 244 293 275 -7 38 -35 24 -84 -43 -60 -82 -163
-171 -253 -217 -69 -37 -181 -77 -213 -77 -18 0 -18 1 1 38 29 57 81 209 97
285 28 137 15 208 -50 265 -46 40 -69 46 -162 40 -59 -4 -89 -12 -147 -41
-164 -81 -258 -238 -237 -394 l6 -42 -90 -89 c-245 -240 -466 -412 -530 -412
-28 0 -39 39 -32 109 20 203 147 489 262 589 61 54 84 58 151 27 65 -29 63
-29 63 -11 0 19 -75 85 -116 102 -43 18 -108 18 -142 0 -15 -8 -56 -45 -92
-81 -67 -69 -209 -172 -284 -206 -85 -38 -110 -24 -141 83 -32 113 -77 148
-145 113 -65 -34 -210 -203 -340 -397 -25 -37 -48 -68 -53 -68 -12 0 -1 36
101 330 52 151 96 285 99 297 7 29 -27 83 -65 106 -17 9 -32 17 -34 17 -2 0
-10 -34 -17 -76z m1931 -25 l31 -30 -6 -102 c-6 -117 -31 -219 -85 -344 l-38
-88 -55 1 c-76 1 -129 13 -129 27 0 7 32 77 70 156 39 78 70 151 70 160 0 30
-36 53 -90 57 l-50 3 -75 -77 -75 -77 20 48 c46 111 158 239 242 277 24 11 65
20 91 20 41 0 53 -5 79 -31z m-374 -346 c-47 -89 -58 -104 -58 -81 0 9 -3 23
-6 32 -4 10 13 35 47 71 28 30 53 55 55 55 2 0 -15 -35 -38 -77z m251 -259 c7
-6 -64 -109 -109 -157 -112 -122 -159 -92 -109 69 33 108 26 103 126 97 49 -3
90 -7 92 -9z"/>
<path d="M10245 2477 c-163 -61 -272 -194 -283 -346 -3 -47 0 -77 12 -105 9
-21 16 -42 16 -46 0 -10 -158 -125 -331 -242 -224 -152 -403 -249 -430 -233
-34 21 29 112 270 394 214 249 302 360 332 416 20 38 22 47 11 83 -14 47 -56
92 -87 92 -45 0 -361 -170 -465 -251 -19 -14 -42 -28 -50 -30 -8 -2 -73 -66
-143 -141 -297 -318 -523 -498 -627 -498 -79 0 -117 65 -107 185 8 95 39 191
95 297 l45 87 39 -34 c45 -41 88 -46 147 -15 90 46 148 171 111 241 -28 51
-131 63 -215 24 -59 -28 -173 -149 -223 -237 -85 -150 -122 -325 -92 -432 17
-63 69 -121 127 -140 146 -50 244 10 650 398 43 40 55 47 67 37 16 -14 14 -16
80 74 108 148 439 365 555 365 78 0 37 -57 -372 -523 -164 -187 -269 -320
-295 -373 -17 -37 -11 -84 18 -131 46 -76 93 -50 710 377 118 82 221 150 229
150 9 0 11 -6 6 -17 -18 -46 -36 -163 -32 -205 7 -85 69 -148 144 -148 67 0
139 67 236 220 34 54 37 56 98 69 94 19 172 54 270 120 l87 59 -24 -72 c-34
-98 -92 -320 -100 -383 -6 -49 -5 -54 24 -83 43 -43 65 -39 98 18 127 220 377
564 508 700 98 102 144 135 178 130 33 -4 28 -31 -52 -268 -38 -113 -77 -249
-87 -303 -16 -91 -16 -99 0 -132 19 -41 70 -75 110 -75 53 0 123 47 256 175
133 127 401 442 401 470 0 34 -33 9 -130 -101 -144 -162 -374 -393 -441 -443
-34 -25 -67 -41 -84 -41 -27 0 -27 1 -20 47 8 53 41 170 110 388 58 182 64
258 26 299 -100 106 -329 -95 -665 -586 -48 -70 -91 -130 -96 -133 -36 -22 68
307 176 559 41 96 63 159 59 173 -3 12 -21 31 -41 43 l-35 22 -23 -21 c-34
-32 -88 -143 -80 -164 3 -10 -4 -44 -16 -77 -26 -71 -92 -137 -198 -200 -83
-48 -252 -107 -252 -86 0 2 13 32 29 67 62 138 107 332 95 409 -21 132 -166
187 -329 127z m249 -46 c35 -37 42 -90 27 -192 -15 -95 -44 -193 -88 -296 -33
-78 -37 -83 -66 -83 -43 0 -157 21 -157 29 0 3 34 75 75 160 63 131 72 156 63
177 -13 28 -62 48 -88 34 -32 -17 -97 -99 -132 -165 -23 -45 -39 -65 -52 -65
-16 0 -18 6 -14 50 9 95 112 258 204 323 58 41 98 55 155 56 38 1 50 -4 73
-28z m-1741 -139 c-2 -46 -42 -103 -99 -140 -54 -37 -82 -40 -115 -13 l-23 18
31 39 c65 82 141 136 183 132 21 -3 25 -8 23 -36z m1565 -462 c29 0 52 -5 52
-10 0 -21 -72 -122 -120 -171 -26 -26 -60 -51 -75 -55 -53 -13 -55 28 -8 170
l25 78 37 -6 c20 -3 60 -6 89 -6z"/>
</g>
</svg>
