<?xml version="1.0" standalone="no"?>
<!DOCTYPE svg PUBLIC "-//W3C//DTD SVG 20010904//EN"
 "http://www.w3.org/TR/2001/REC-SVG-20010904/DTD/svg10.dtd">
<svg version="1.0" xmlns="http://www.w3.org/2000/svg"
 width="744.000000pt" height="376.000000pt" viewBox="0 0 744.000000 376.000000"
 preserveAspectRatio="xMidYMid meet">

<g transform="translate(0.000000,376.000000) scale(0.100000,-0.100000)"
fill="#ffffff" stroke="none">
<path d="M2470 3539 c-40 -16 -189 -175 -289 -309 -88 -116 -417 -607 -644
-960 -54 -84 -100 -151 -102 -149 -1 2 17 243 41 534 24 292 42 546 38 566 -9
62 -58 99 -129 99 -22 0 -42 -8 -56 -22 -92 -96 -239 -417 -504 -1098 -210
-539 -244 -618 -266 -625 -28 -9 -24 -20 20 -54 43 -34 81 -51 116 -51 23 0
25 4 24 48 -1 51 4 78 56 285 44 171 113 396 166 533 52 137 257 602 320 724
52 101 105 174 120 165 26 -17 0 -371 -67 -924 -14 -119 -27 -245 -27 -281 -2
-95 31 -147 105 -165 24 -6 29 -3 38 20 28 73 277 506 473 820 327 524 583
840 649 799 28 -17 -13 -229 -98 -509 -105 -345 -446 -1359 -480 -1427 -27
-54 -143 -248 -158 -265 -1 -1 -47 11 -101 28 -267 80 -464 112 -705 112 -186
0 -303 -11 -415 -39 -206 -51 -357 -151 -413 -272 -21 -47 -24 -65 -20 -127 4
-60 10 -82 36 -122 116 -180 361 -275 676 -260 199 9 352 53 521 148 152 87
342 251 439 381 16 21 35 38 43 38 13 0 14 -10 7 -67 -5 -38 -9 -96 -9 -130 1
-87 33 -127 115 -148 l25 -6 0 140 c0 76 3 142 7 146 11 11 531 -218 591 -260
12 -8 36 -15 55 -15 18 0 31 -4 28 -9 -9 -15 403 -203 662 -302 259 -99 415
-152 600 -203 788 -218 1561 -207 2396 35 287 83 862 302 913 347 30 26 31 80
3 110 -31 33 -92 30 -119 -4 -12 -15 -21 -37 -21 -49 0 -12 -6 -27 -13 -33
-19 -16 -452 -183 -597 -230 -355 -117 -722 -195 -1085 -233 -149 -15 -572
-15 -720 0 -591 60 -1082 210 -1842 559 -127 59 -153 67 -156 53 -3 -9 -3 11
0 44 9 118 35 232 78 340 39 101 154 366 176 407 18 34 58 -2 151 -135 229
-326 367 -463 540 -535 163 -68 379 -68 422 0 8 13 7 21 -2 30 -9 9 -17 6 -38
-13 -22 -20 -35 -24 -86 -22 -78 2 -177 33 -258 80 -124 73 -351 326 -491 550
l-20 32 28 6 c340 67 672 305 956 684 147 196 253 402 299 583 54 213 -28 417
-187 463 -125 37 -234 -23 -448 -245 -321 -333 -763 -1042 -977 -1567 -30 -73
-56 -131 -57 -129 -5 5 41 201 76 326 103 364 268 766 486 1186 106 203 158
270 228 293 20 7 37 18 37 25 0 28 -102 103 -145 108 -26 3 -34 -4 -67 -52
-52 -76 -181 -331 -273 -540 -254 -575 -463 -1226 -539 -1678 -13 -79 -26
-145 -28 -148 -2 -2 -120 48 -261 111 -142 63 -262 115 -267 115 -6 0 -8 12
-4 28 47 204 115 440 179 612 62 169 115 336 115 363 0 10 47 163 105 340 169
518 215 695 215 815 -1 145 -83 223 -190 181z m1889 -244 c88 -101 28 -424
-130 -700 -215 -376 -685 -768 -1024 -855 -93 -24 -195 -20 -195 8 0 20 187
382 285 552 319 552 627 923 840 1015 53 23 133 33 167 22 15 -5 41 -24 57
-42z m-3049 -1971 c136 -20 430 -90 446 -107 2 -2 -27 -37 -64 -79 -197 -225
-429 -366 -678 -414 -88 -16 -291 -18 -383 -3 -144 23 -283 99 -346 187 -26
38 -30 53 -30 107 0 54 4 69 30 107 103 146 408 234 775 222 80 -3 192 -12
250 -20z"/>
</g>
</svg>
